<?xml version="1.0" encoding="utf-8"?>
<!-- Generated by IcoMoon.io -->
<!DOCTYPE svg PUBLIC "-//W3C//DTD SVG 1.1//EN" "http://www.w3.org/Graphics/SVG/1.1/DTD/svg11.dtd">
<svg version="1.1" xmlns="http://www.w3.org/2000/svg" xmlns:xlink="http://www.w3.org/1999/xlink" width="27" height="32" viewBox="0 0 27 32">
<path d="M14.731 16.398v-5.265h-2.455v5.265c-0.731 0.425-1.228 1.212-1.228 2.12 0 0.91 0.496 1.692 1.228 2.12v1.572h2.455v-1.572c0.732-0.428 1.228-1.21 1.228-2.12 0-0.909-0.495-1.695-1.228-2.12z" fill="rgb(68, 68, 68)"></path>
<path d="M24.256 10.351l2.689-2.701-2.604-2.611-2.689 2.701c-1.961-1.492-4.33-2.465-6.921-2.698v-2.524h1.228v-2.462h-4.91v2.462h1.228v2.524c-6.881 0.622-12.276 6.413-12.276 13.476 0 7.476 6.046 13.539 13.504 13.539 7.457 0 13.504-6.062 13.504-13.538 0-3.072-1.034-5.895-2.752-8.167zM13.504 29.595c-6.092 0-11.048-4.969-11.048-11.077s4.956-11.077 11.048-11.077c6.094 0 11.048 4.969 11.048 11.077s-4.955 11.077-11.048 11.077z" fill="rgb(68, 68, 68)"></path>
</svg>
